<?xml version="1.0" encoding="utf-8"?>
<!-- Generator: Adobe Illustrator 22.1.0, SVG Export Plug-In . SVG Version: 6.00 Build 0)  -->
<svg version="1.1" id="Layer_1" xmlns="http://www.w3.org/2000/svg" xmlns:xlink="http://www.w3.org/1999/xlink" x="0px" y="0px"
	 viewBox="0 0 9698.7 1657.7" style="enable-background:new 0 0 9698.7 1657.7;" xml:space="preserve">
<style type="text/css">
	.st0{fill:#E6C792;}
</style>
<g>
	<path class="st0" d="M410.4,392H241.2v-13.8c28.2-1.2,51.6-7.8,57.6-20.4l-42.6-124.2H138l-42,117c6.6,14.4,30.6,26.4,58.2,27.6
		V392H0v-13.8c27.6-1.2,45.6-6,57.6-21.6c16.2-39.6,36.6-89.4,54.6-138c24.6-66.6,48.6-132,62.4-173.4c7.2-21,6.6-28.2,7.8-39.6
		h61.8c1.8,18.6,1.8,27,7.8,46.2c19.8,63.6,36.6,114,53.4,164.4c14.4,42.6,28.8,84,48,135.6c6.6,18,29.4,25.2,57,26.4V392z
		 M247.2,207.2L208.8,83.6l-7.8-33h-2.4l-9,33L147,207.2H247.2z"/>
	<path class="st0" d="M862.8,24.2c-28.2,1.2-51,14.4-57,26.4V284c0,31.8,1.8,87.6,3.6,112.8H786L544.8,113l-30-42.6H513l1.8,39
		v139.8c0,32.4,3,78,3.6,103.2c6,12,39.6,24.6,67.2,25.8V392H423v-13.8c28.2-1.2,52.8-13.8,58.2-25.8V134c0-30,0.6-62.4-3-85.2
		c-6-12-28.2-23.4-55.8-24.6V11H528l34.2,42.6l210.6,247.8V153.2c0-33-2.4-84-3-102.6c-6-12-39.6-25.2-67.2-26.4V11h160.2V24.2z"/>
	<path class="st0" d="M1270.2,285.8l-21,93c-43.8,13.8-59.4,21-128.4,21c-120.6,0-208.8-88.2-208.8-201.6c0-115.2,93.6-195,210-195
		c57.6,0,91.2,10.8,135.6,21.6v99h-13.2c-2.4-27-12-57.6-35.4-72c-10.8-6.6-38.4-25.8-96-25.8c-87,0-138.6,72.6-138.6,157.8
		c0,112.8,66,193.2,167.4,193.2c33,0,56.4-10.8,66.6-19.2c24-19.2,41.4-47.4,47.4-75.6L1270.2,285.8z"/>
	<path class="st0" d="M1491.6,392H1317v-13.8c28.2-1.2,54.6-9,60-21V45.8c-5.4-12-31.8-20.4-60-21.6V11h174.6v13.2
		c-28.2,1.2-54.6,9.6-60,21.6v311.4c5.4,12,31.8,19.8,60,21V392z"/>
	<path class="st0" d="M1842.6,392h-199.2l-124.2,1.8V380c27.6-1.2,69-9.6,77.4-29.4V45.8c-5.4-12-29.4-19.8-57-21V11.6H1773
		c17.4,0,28.2-1.8,36-4.2h11.4V104h-12.6c-2.4-52.8-25.2-65.4-70.2-65.4h-86.4v145.2h81c40.2,0,57.6-0.6,63.6-44.4h11.4v121.8h-12.6
		c-4.8-48.6-18.6-48-62.4-48h-81v132c1.8,7.8,5.4,16.2,16.2,20.4l93.6-1.8c41.4-0.6,68.4-17.4,69.6-68.4h12V392z"/>
	<path class="st0" d="M2343.6,24.2c-28.2,1.2-51,14.4-57,26.4V284c0,31.8,1.8,87.6,3.6,112.8h-23.4L2025.6,113l-30-42.6h-1.8l1.8,39
		v139.8c0,32.4,3,78,3.6,103.2c6,12,39.6,24.6,67.2,25.8V392h-162.6v-13.8c28.2-1.2,52.8-13.8,58.2-25.8V134c0-30,0.6-62.4-3-85.2
		c-6-12-28.2-23.4-55.8-24.6V11h105.6l34.2,42.6l210.6,247.8V153.2c0-33-2.4-84-3-102.6c-6-12-39.6-25.2-67.2-26.4V11h160.2V24.2z"
		/>
	<path class="st0" d="M2745,108.8h-12c-1.2-51-28.2-69-72.6-69.6l-67.2-0.6v306.6c13.2,28.2,45,31.8,72.6,33V392h-201v-13.8
		c27.6-1.2,65.4-6.6,73.8-24.6v-315l-67.2,0.6c-44.4,0.6-70.8,18.6-72,69.6h-12.6V7.4h11.4c7.8,2.4,16.2,4.2,36,4.2h263.4
		c15,0,28.2-1.8,36-4.2h11.4V108.8z"/>
	<path class="st0" d="M3460.8,392h-172.2v-13.8c27.6-1.2,56.4-9,61.2-21l-11.4-222l2.4-62.4l-17.4,48L3192,392.6h-19.2L3060,109.4
		l-12.6-46.8l0.6,42.6l-17.4,247.2c4.2,12,33,24.6,60.6,25.8V392h-153v-13.8c27.6-1.2,51.6-13.8,58.8-25.8l16.8-218.4
		c1.8-22.2,4.8-64.8,4.8-67.8c0-7.8,0-15-0.6-21c-6-9.6-24.6-19.8-52.2-21V11h110.4l20.4,57l100.2,250.2l117.6-244.8L3342,11h96
		v13.2c-27.6,1.2-46.2,10.2-52.2,19.8c0,4.8,0,10.2,0,16.2s3,54,4.2,73.8l12.6,223.2c7.2,12,30.6,19.8,58.2,21V392z"/>
	<path class="st0" d="M3804.6,392h-199.2l-124.2,1.8V380c27.6-1.2,69-9.6,77.4-29.4V45.8c-5.4-12-29.4-19.8-57-21V11.6H3735
		c17.4,0,28.2-1.8,36-4.2h11.4V104h-12.6c-2.4-52.8-25.2-65.4-70.2-65.4h-86.4v145.2h81c40.2,0,57.6-0.6,63.6-44.4h11.4v121.8h-12.6
		c-4.8-48.6-18.6-48-62.4-48h-81v132c1.8,7.8,5.4,16.2,16.2,20.4l93.6-1.8c41.4-0.6,68.4-17.4,69.6-68.4h12V392z"/>
	<path class="st0" d="M3997.2,401c-46.2,0-81.6-13.2-104.4-23.4l-10.8-95.4h13.2c5.4,26.4,22.2,57.6,45.6,73.2
		c15.6,10.2,40.2,22.8,67.2,22.8c53.4,0,79.8-31.2,79.8-67.8c0-42-25.8-62.4-79.2-82.8c-79.2-30.6-112.2-57-112.2-114
		c0-66,61.8-111,146.4-111c39.6,0,67.8,9,88.2,18v93.6h-13.2c-2.4-27-11.4-57-34.8-70.2c-9.6-5.4-28.2-17.4-55.8-17.4
		c-56.4,0-79.2,30-79.2,62.4c0,37.8,12.6,56.4,84.6,87c73.2,31.2,106.8,55.2,106.8,111.6C4139.4,358.4,4077.6,401,3997.2,401z"/>
	<path class="st0" d="M4398.6,401c-118.8,0-187.8-82.2-187.8-197.4c0-117,94.8-201,213-201c120.6,0,188.4,83.4,188.4,193.8
		C4612.2,317,4516.8,401,4398.6,401z M4390.8,26.6c-60.6,0-119.4,65.4-119.4,158.4c0,109.2,56.4,191.4,156.6,191.4
		c63.6,0,123.6-63.6,123.6-159C4551.6,103.4,4489.2,26.6,4390.8,26.6z"/>
	<path class="st0" d="M4821.6,239c-14.4,0-24-3-42.6-7.8v117c8.4,19.8,44.4,28.8,72,30V392h-192v-13.8c27.6-1.2,57-7.2,65.4-27V47
		c-6-13.8-34.2-21.6-61.8-22.8V11c66.6,0,124.2-1.8,151.8-1.8c102,0,150,42,150,109.2C4964.4,186.8,4915.2,239,4821.6,239z
		 M4816.8,30.8c-9.6,0-24,0-37.8,1.2v184.2c13.2,2.4,22.2,2.4,33.6,2.4c60.6,0,93-41.4,93-102.6
		C4905.6,69.2,4874.4,30.8,4816.8,30.8z"/>
	<path class="st0" d="M5207.9,401c-118.8,0-187.8-82.2-187.8-197.4c0-117,94.8-201,213-201c120.6,0,188.4,83.4,188.4,193.8
		C5421.5,317,5326.1,401,5207.9,401z M5200.1,26.6c-60.6,0-119.4,65.4-119.4,158.4c0,109.2,56.4,191.4,156.6,191.4
		c63.6,0,123.6-63.6,123.6-159C5360.9,103.4,5298.5,26.6,5200.1,26.6z"/>
	<path class="st0" d="M5826.5,108.8h-12c-1.2-51-28.2-69-72.6-69.6l-67.2-0.6v306.6c13.2,28.2,45,31.8,72.6,33V392h-201v-13.8
		c27.6-1.2,65.4-6.6,73.8-24.6v-315l-67.2,0.6c-44.4,0.6-70.8,18.6-72,69.6h-12.6V7.4h11.4c7.8,2.4,16.2,4.2,36,4.2h263.4
		c15,0,28.2-1.8,36-4.2h11.4V108.8z"/>
	<path class="st0" d="M6220.7,392h-169.2v-13.8c28.2-1.2,51.6-7.8,57.6-20.4l-42.6-124.2h-118.2l-42,117
		c6.6,14.4,30.6,26.4,58.2,27.6V392h-154.2v-13.8c27.6-1.2,45.6-6,57.6-21.6c16.2-39.6,36.6-89.4,54.6-138
		c24.6-66.6,48.6-132,62.4-173.4c7.2-21,6.6-28.2,7.8-39.6h61.8c1.8,18.6,1.8,27,7.8,46.2c19.8,63.6,36.6,114,53.4,164.4
		c14.4,42.6,28.8,84,48,135.6c6.6,18,29.4,25.2,57,26.4V392z M6057.5,207.2l-38.4-123.6l-7.8-33h-2.4l-9,33l-42.6,123.6H6057.5z"/>
	<path class="st0" d="M6747.5,392h-172.2v-13.8c27.6-1.2,56.4-9,61.2-21l-11.4-222l2.4-62.4l-17.4,48l-131.4,271.8h-19.2
		l-112.8-283.2l-12.6-46.8l0.6,42.6l-17.4,247.2c4.2,12,33,24.6,60.6,25.8V392h-153v-13.8c27.6-1.2,51.6-13.8,58.8-25.8l16.8-218.4
		c1.8-22.2,4.8-64.8,4.8-67.8c0-7.8,0-15-0.6-21c-6-9.6-24.6-19.8-52.2-21V11h110.4l20.4,57l100.2,250.2l117.6-244.8l27.6-62.4h96
		v13.2c-27.6,1.2-46.2,10.2-52.2,19.8c0,4.8,0,10.2,0,16.2s3,54,4.2,73.8l12.6,223.2c7.2,12,30.6,19.8,58.2,21V392z"/>
	<path class="st0" d="M6962.3,392h-174.6v-13.8c28.2-1.2,54.6-9,60-21V45.8c-5.4-12-31.8-20.4-60-21.6V11h174.6v13.2
		c-28.2,1.2-54.6,9.6-60,21.6v311.4c5.4,12,31.8,19.8,60,21V392z"/>
	<path class="st0" d="M7383.5,392h-169.2v-13.8c28.2-1.2,51.6-7.8,57.6-20.4l-42.6-124.2h-118.2l-42,117
		c6.6,14.4,30.6,26.4,58.2,27.6V392h-154.2v-13.8c27.6-1.2,45.6-6,57.6-21.6c16.2-39.6,36.6-89.4,54.6-138
		c24.6-66.6,48.6-132,62.4-173.4c7.2-21,6.6-28.2,7.8-39.6h61.8c1.8,18.6,1.8,27,7.8,46.2c19.8,63.6,36.6,114,53.4,164.4
		c14.4,42.6,28.8,84,48,135.6c6.6,18,29.4,25.2,57,26.4V392z M7220.3,207.2l-38.4-123.6l-7.8-33h-2.4l-9,33l-42.6,123.6H7220.3z"/>
	<path class="st0" d="M7680.5,401c-46.2,0-81.6-13.2-104.4-23.4l-10.8-95.4h13.2c5.4,26.4,22.2,57.6,45.6,73.2
		c15.6,10.2,40.2,22.8,67.2,22.8c53.4,0,79.8-31.2,79.8-67.8c0-42-25.8-62.4-79.2-82.8c-79.2-30.6-112.2-57-112.2-114
		c0-66,61.8-111,146.4-111c39.6,0,67.8,9,88.2,18v93.6h-13.2c-2.4-27-11.4-57-34.8-70.2c-9.6-5.4-28.2-17.4-55.8-17.4
		c-56.4,0-79.2,30-79.2,62.4c0,37.8,12.6,56.4,84.6,87c73.2,31.2,106.8,55.2,106.8,111.6C7822.7,358.4,7760.9,401,7680.5,401z"/>
	<path class="st0" d="M8041.7,239c-14.4,0-24-3-42.6-7.8v117c8.4,19.8,44.4,28.8,72,30V392h-192v-13.8c27.6-1.2,57-7.2,65.4-27V47
		c-6-13.8-34.2-21.6-61.8-22.8V11c66.6,0,124.2-1.8,151.8-1.8c102,0,150,42,150,109.2C8184.5,186.8,8135.3,239,8041.7,239z
		 M8036.9,30.8c-9.6,0-24,0-37.8,1.2v184.2c13.2,2.4,22.2,2.4,33.6,2.4c60.6,0,93-41.4,93-102.6
		C8125.7,69.2,8094.5,30.8,8036.9,30.8z"/>
	<path class="st0" d="M8536.7,392h-199.2l-124.2,1.8V380c27.6-1.2,69-9.6,77.4-29.4V45.8c-5.4-12-29.4-19.8-57-21V11.6h233.4
		c17.4,0,28.2-1.8,36-4.2h11.4V104h-12.6c-2.4-52.8-25.2-65.4-70.2-65.4h-86.4v145.2h81c40.2,0,57.6-0.6,63.6-44.4h11.4v121.8h-12.6
		c-4.8-48.6-18.6-48-62.4-48h-81v132c1.8,7.8,5.4,16.2,16.2,20.4l93.6-1.8c41.4-0.6,68.4-17.4,69.6-68.4h12V392z"/>
	<path class="st0" d="M8972.3,392h-169.2v-13.8c28.2-1.2,51.6-7.8,57.6-20.4l-42.6-124.2h-118.2l-42,117
		c6.6,14.4,30.6,26.4,58.2,27.6V392h-154.2v-13.8c27.6-1.2,45.6-6,57.6-21.6c16.2-39.6,36.6-89.4,54.6-138
		c24.6-66.6,48.6-132,62.4-173.4c7.2-21,6.6-28.2,7.8-39.6h61.8c1.8,18.6,1.8,27,7.8,46.2c19.8,63.6,36.6,114,53.4,164.4
		c14.4,42.6,28.8,84,48,135.6c6.6,18,29.4,25.2,57,26.4V392z M8809.1,207.2l-38.4-123.6l-7.8-33h-2.4l-9,33l-42.6,123.6H8809.1z"/>
	<path class="st0" d="M9151.7,392h-162.6v-13.8c27.6-1.2,48.6-9,54-21V45.8c-5.4-12-26.4-20.4-54-21.6V11h162.6v13.2
		c-27.6,1.2-48.6,9.6-54,21.6v311.4c5.4,12,26.4,19.8,54,21V392z M9386.9,392h-178.8v-13.8c30-1.2,36-7.8,43.2-15l-145.2-160.8
		L9248.3,44c-6.6-7.8-15.6-16.2-43.2-19.8V11h158.4v13.2c-42,2.4-72.6,18-96,43.8l-106.2,115.8L9299.9,338
		c25.2,27.6,47.4,39,87,40.2V392z"/>
	<path class="st0" d="M9539.9,401c-46.2,0-81.6-13.2-104.4-23.4l-10.8-95.4h13.2c5.4,26.4,22.2,57.6,45.6,73.2
		c15.6,10.2,40.2,22.8,67.2,22.8c53.4,0,79.8-31.2,79.8-67.8c0-42-25.8-62.4-79.2-82.8c-79.2-30.6-112.2-57-112.2-114
		c0-66,61.8-111,146.4-111c39.6,0,67.8,9,88.2,18v93.6h-13.2c-2.4-27-11.4-57-34.8-70.2c-9.6-5.4-28.2-17.4-55.8-17.4
		c-56.4,0-79.2,30-79.2,62.4c0,37.8,12.6,56.4,84.6,87c73.2,31.2,106.8,55.2,106.8,111.6C9682.1,358.4,9620.3,401,9539.9,401z"/>
</g>
<path class="st0" d="M356.4,819l-1.6,8.8c-18.8,0.8-32.4,6.4-38,14.4l-44,207.6c2,8,19.2,13.2,37.2,14l-2,9.2H197.6l2-9.2
	c18.8-0.8,32-6,38-14L258,953H112.4L92,1049.8c1.6,8,19.2,13.2,37.2,14l-2,9.2H16.4l2-9.2c18.8-0.8,32.4-6,38-14l44-207.6
	c-2-8-19.2-13.6-37.2-14.4l1.6-8.8h110.8l-1.6,8.8c-18.8,0.8-32.8,6.4-38,14.4l-19.2,91.6h145.6l19.2-91.6
	c-2.4-8-19.2-13.6-37.2-14.4l1.6-8.8H356.4z"/>
<path class="st0" d="M445.2,1027.8c-23.2,28-44.4,48.4-65.2,48.4c-8.8,0-12-12.4-12-26.4c0-7.2,2.4-21.2,5.6-33.6l18-72.4
	c2-8.8,4.8-22,4.8-23.6c0-1.2,0.8-4-1.2-4c-5.2,0-16.8,11.6-32.8,34l-7.6-5.2c22.4-32,40-47.6,58.4-47.6c8.8,0,12,11.2,12,23.6
	c0,4,0,9.2-1.2,13.6l-23.2,92.8c-0.8,3.2-2,10.4-2,13.2c0,6,2,12.4,6.4,12.4c4,0,17.6-13.2,32.8-31.2L445.2,1027.8z M426.4,843.4
	c-12.4,0-20.4-10-20.4-19.2c0-9.6,8-20,20.4-20c12,0,20,10.4,20,20C446.4,833.4,438.4,843.4,426.4,843.4z"/>
<path class="st0" d="M644.8,906.2l-4.8,16h-40.8c4.4,10.4,7.2,21.2,7.2,26c0,29.6-14.4,52-46.4,69.6c-21.6,12-36.8,16.8-36.8,29.2
	c0,9.2,6,16.8,25.2,26.4l21.6,10.8c22,10.8,29.6,22.8,29.6,40c0,21.6-33.6,52-93.6,52c-54.4,0-72.4-24-72.4-37.2
	c0-20.4,18.8-33.6,73.6-56c-7.2-9.2-9.6-16-9.6-24c0-4.4,11.2-15.6,20-25.6c-24.8-12-38.8-27.2-38.8-55.2c0-20.8,12.4-42.8,32-58.4
	c17.2-14,35.2-24,54.8-24c7.2,0,19.2,4.8,24.4,10.4H644.8z M553.6,1109l-40-21.6c-34.8,16-49.2,34.8-49.2,50.4
	c0,10.4,16.4,28.8,48,28.8c36.8,0,62.4-22.4,62.4-32.8C574.8,1122.2,569.2,1119.4,553.6,1109z M550.4,908.6
	c-15.6,0-40.8,32.4-40.8,70.8c0,22.8,10.4,38.4,24.8,38.4c18.4,0,42.4-32.8,42.4-71.2C576.8,923.4,564.8,908.6,550.4,908.6z"/>
<path class="st0" d="M827.6,1027.8c-23.2,28-44.8,48.4-65.6,48.4c-8.8,0-11.2-12.8-11.2-26.8c0-7.2,3.6-19.2,6.4-31.6
	c0,0,17.2-67.6,20-84c0-10-1.2-12.8-7.2-12.8c-7.6,0-43.2,36.8-74.8,75.2L680,1073h-29.6L698,839.4c1.6-7.2,2.4-12,2.4-16
	c0-8-3.6-10.8-14.8-10.8c-3.6,0-9.6,1.2-14.8,1.6l2-9.2l58.4-15.2h6.4l-38.8,188.8c35.2-42.8,71.6-81.2,93.2-81.2
	c6.8,0,16.8,15.2,16.8,27.2c0,7.2-1.6,16.4-5.6,30.8l-19.6,73.2c-1.2,4.4-2.4,12.8-2.4,15.6c0,6.4,0.4,10,5.2,10
	c4.4,0,18.8-14.4,34-32.4L827.6,1027.8z"/>
<path class="st0" d="M942,789.8l-48,236c-0.8,3.6-2,13.2-2,16c0,6,1.6,11.2,6,11.2s18.4-13.6,33.6-32l7.2,6
	c-23.6,28.8-45.2,49.2-66,49.2c-8.8,0-11.6-12.4-11.6-26.4c0-7.2,2.4-20.4,4.8-31.6l36.4-178.8c1.6-7.2,2.4-12,2.4-16
	c0-8-3.6-10.8-14.8-10.8c-3.6,0-9.6,1.2-14.8,1.6l2-9.2l58.4-15.2H942z"/>
<path class="st0" d="M1054.4,1027.8c-23.2,28-44.4,48.4-65.2,48.4c-8.8,0-12-12.4-12-26.4c0-7.2,2.4-21.2,5.6-33.6l18-72.4
	c2-8.8,4.8-22,4.8-23.6c0-1.2,0.8-4-1.2-4c-5.2,0-16.8,11.6-32.8,34L964,945c22.4-32,40-47.6,58.4-47.6c8.8,0,12,11.2,12,23.6
	c0,4,0,9.2-1.2,13.6l-23.2,92.8c-0.8,3.2-2,10.4-2,13.2c0,6,2,12.4,6.4,12.4c4,0,17.6-13.2,32.8-31.2L1054.4,1027.8z M1035.6,843.4
	c-12.4,0-20.4-10-20.4-19.2c0-9.6,8-20,20.4-20c12,0,20,10.4,20,20C1055.6,833.4,1047.6,843.4,1035.6,843.4z"/>
<path class="st0" d="M1254,906.2l-4.8,16h-40.8c4.4,10.4,7.2,21.2,7.2,26c0,29.6-14.4,52-46.4,69.6c-21.6,12-36.8,16.8-36.8,29.2
	c0,9.2,6,16.8,25.2,26.4l21.6,10.8c22,10.8,29.6,22.8,29.6,40c0,21.6-33.6,52-93.6,52c-54.4,0-72.4-24-72.4-37.2
	c0-20.4,18.8-33.6,73.6-56c-7.2-9.2-9.6-16-9.6-24c0-4.4,11.2-15.6,20-25.6c-24.8-12-38.8-27.2-38.8-55.2c0-20.8,12.4-42.8,32-58.4
	c17.2-14,35.2-24,54.8-24c7.2,0,19.2,4.8,24.4,10.4H1254z M1162.8,1109l-40-21.6c-34.8,16-49.2,34.8-49.2,50.4
	c0,10.4,16.4,28.8,48,28.8c36.8,0,62.4-22.4,62.4-32.8C1184,1122.2,1178.4,1119.4,1162.8,1109z M1159.6,908.6
	c-15.6,0-40.8,32.4-40.8,70.8c0,22.8,10.4,38.4,24.8,38.4c18.4,0,42.4-32.8,42.4-71.2C1186,923.4,1174,908.6,1159.6,908.6z"/>
<path class="st0" d="M1436.8,1027.8c-23.2,28-44.8,48.4-65.6,48.4c-8.8,0-11.2-12.8-11.2-26.8c0-7.2,3.6-19.2,6.4-31.6
	c0,0,17.2-67.6,20-84c0-10-1.2-12.8-7.2-12.8c-7.6,0-43.2,36.8-74.8,75.2l-15.2,76.8h-29.6l47.6-233.6c1.6-7.2,2.4-12,2.4-16
	c0-8-3.6-10.8-14.8-10.8c-3.6,0-9.6,1.2-14.8,1.6l2-9.2l58.4-15.2h6.4L1308,978.6c35.2-42.8,71.6-81.2,93.2-81.2
	c6.8,0,16.8,15.2,16.8,27.2c0,7.2-1.6,16.4-5.6,30.8l-19.6,73.2c-1.2,4.4-2.4,12.8-2.4,15.6c0,6.4,0.4,10,5.2,10
	c4.4,0,18.8-14.4,34-32.4L1436.8,1027.8z"/>
<path class="st0" d="M1571.2,902.6l-4.8,16.8h-42l-20,106.4c-0.8,4-1.6,13.2-1.6,16c0,7.6,2.4,12.8,6.8,12.8s23.6-15.6,39.2-36
	l7.2,6c-25.2,32.4-48.8,51.6-69.6,51.6c-8.8,0-14.4-12.4-14.4-26.4c0-7.2,2-20,4.4-31.6l18.8-99.2l-25.2,0.8l2-8.4
	c27.2-12.4,42-24.4,59.2-52h8.8l-12.4,43.2H1571.2z"/>
<path class="st0" d="M1676.8,939c-9.6-11.6-21.6-23.2-38.8-23.2c-1.2,0-2.4,0-3.6,0.4c-3.2,2.4-10,13.2-10,22.8
	c0,6,2.4,14.4,7.2,20.4c9.2,11.6,20,21.2,28.8,30.4c7.2,7.6,15.2,18.4,15.2,30c0,28-30,57.6-67.6,57.6c-26,0-40-18-40-26.8
	c0-6.4,12.4-16.4,19.2-19.6c6.8,10.8,22,29.2,46.8,29.2c2.4,0,5.2-0.4,8-1.2c4.4-2.4,12-12,12-21.2c0-12.8-15.6-24.8-30.4-40.4
	c-14.8-15.6-24.8-26.4-24.8-41.2c0-26,34.8-58.8,63.2-58.8c21.6,0,34.4,12.4,34.4,21.6C1696.4,925,1684,935.4,1676.8,939z"/>
<path class="st0" d="M1957.2,825.8c-6.4-6.4-20.4-17.6-36.4-17.6c-3.6,0-14.8,13.2-22.8,39.2c-2.4,8-8,36-11.2,54.8h49.6l-4.8,16.8
	H1884l-22.8,142.8c-2.8,17.6-9.2,45.2-26.8,68.4c-19.6,26-41.2,45.6-72.4,45.6c-14,0-22.8-8.8-23.2-16c0.8-5.6,8.8-17.6,18.4-22.4
	c6.4,6.4,22.8,18.8,37.2,18.8c4.4,0,16-12.8,23.6-38.8c3.6-11.6,8.4-28.4,13.2-56.8l23.6-142h-33.2l1.6-8.4l33.2-7.6
	c2.8-18,8.4-46,25.2-68.4c19.2-25.6,40.8-45.6,72-45.6c16.4,0,23.6,9.6,24,15.6C1976,809.8,1967.6,821.8,1957.2,825.8z"/>
<path class="st0" d="M2060,938.2h-4c-11.2-7.2-14.4-8.8-24.8-8.8s-36,43.2-38.4,55.6l-17.2,88H1946l25.6-129.2
	c1.2-6.8,2.8-22,2.8-23.6c0-1.2-0.8-4-1.6-4c-5.2,0-16.4,11.6-32.4,34l-7.6-5.2c22.4-32,38.8-47.6,57.2-47.6
	c8.8,0,12.4,11.6,12.4,24c0,4-0.8,9.2-1.6,13.6l-3.2,21.2c21.2-37.2,43.6-53.6,57.6-58.8c10,0,19.2,4.8,27.6,9.2L2060,938.2z"/>
<path class="st0" d="M2200,1031c-27.2,33.2-55.6,46.4-70.4,46.4c-22,0-45.6-25.2-45.6-69.6c0-20.8,8-44,24.4-64.4
	c25.2-31.2,56.8-46,70.4-46c22.8,0,45.6,25.2,45.6,69.6C2224.4,987.8,2216.4,1011,2200,1031z M2162.8,914.2
	c-16.8,0-47.6,35.2-47.6,90c0,38.4,14.4,56.8,30.8,56.8c18,0,47.2-36,47.2-92C2193.2,933.4,2178.8,914.2,2162.8,914.2z"/>
<path class="st0" d="M2535.6,1027.8c-23.2,28-44.4,48.4-65.2,48.4c-8.8,0-11.6-12.4-11.6-26.4c0-7.2,3.6-19.2,6.4-31.6
	c0,0,16.8-65.6,19.6-82c0-12-2.4-14.8-6.8-14.8c-8,0-40.4,35.6-72,74l-18,77.6h-29.2c0,0,27.2-120.4,30-136.8
	c0-12.4-2.4-14.8-6.8-14.8c-8.4,0-40.8,35.6-72.4,74l-15.2,77.6h-29.6l26.4-129.2c1.2-6.8,5.2-22,5.2-23.6c0-1.2,0.8-4-1.2-4
	c-5.2,0-16.8,11.6-32.8,34l-7.6-5.2c22.4-32,39.2-47.6,57.6-47.6c8.8,0,12.8,11.2,12.8,23.6c0,4-0.8,9.2-2,13.6l-10,43.2
	c35.2-42.8,69.2-80.4,90.8-80.4c6.8,0,17.2,15.2,17.2,27.2c0,7.2-2.4,16.4-6,30.8l-5.6,22.4c35.2-42.8,68.4-80.4,90-80.4
	c6.8,0,17.2,15.2,17.2,27.2c0,7.2-1.6,16.4-5.6,30.8l-19.6,73.2c-0.8,3.6-2.4,12-2.4,14.8c0,7.6,0.8,10.8,5.2,10.8
	s18.8-14.4,34-32.4L2535.6,1027.8z"/>
<path class="st0" d="M2772,902.6l-4.8,16.8h-42l-20,106.4c-0.8,4-1.6,13.2-1.6,16c0,7.6,2.4,12.8,6.8,12.8s23.6-15.6,39.2-36l7.2,6
	c-25.2,32.4-48.8,51.6-69.6,51.6c-8.8,0-14.4-12.4-14.4-26.4c0-7.2,2-20,4.4-31.6L2696,919l-25.2,0.8l2-8.4
	c27.2-12.4,42-24.4,59.2-52h8.8l-12.4,43.2H2772z"/>
<path class="st0" d="M2962,1027.8c-23.2,28-44.8,48.4-65.6,48.4c-8.8,0-11.2-12.8-11.2-26.8c0-7.2,3.6-19.2,6.4-31.6
	c0,0,17.2-67.6,20-84c0-10-1.2-12.8-7.2-12.8c-7.6,0-43.2,36.8-74.8,75.2l-15.2,76.8h-29.6l47.6-233.6c1.6-7.2,2.4-12,2.4-16
	c0-8-3.6-10.8-14.8-10.8c-3.6,0-9.6,1.2-14.8,1.6l2-9.2l58.4-15.2h6.4l-38.8,188.8c35.2-42.8,71.6-81.2,93.2-81.2
	c6.8,0,16.8,15.2,16.8,27.2c0,7.2-1.6,16.4-5.6,30.8l-19.6,73.2c-1.2,4.4-2.4,12.8-2.4,15.6c0,6.4,0.4,10,5.2,10
	c4.4,0,18.8-14.4,34-32.4L2962,1027.8z"/>
<path class="st0" d="M3020.4,993.8c-0.4,4.8-0.8,11.2-0.8,16c0,28.4,10.8,46.4,29.2,46.4c13.2,0,29.6-12.8,48.8-33.2l6.4,6.4
	c-26,31.2-54,47.6-74,47.6c-25.2,0-41.2-25.6-41.2-61.6c0-30.8,13.6-61.2,33.2-83.6c18-20.8,38.8-34.4,59.6-34.4
	c23.2,0,33.2,15.2,33.2,31.2C3114.8,951.4,3083.6,976.6,3020.4,993.8z M3057.2,913.4c-15.6,10.4-30.4,37.6-36,70.4
	c32.8-8.8,50.8-21.6,63.2-32.8c0.8-2,1.6-5.2,1.6-7.2C3086,927.4,3082.8,913.4,3057.2,913.4z"/>
<path class="st0" d="M302.8,1299l-1.6,8.8c-22.8,1.2-32,8.4-47.6,27.6l-89.2,109.2l-16,77.6c4.4,18.8,24.8,20.8,42.8,21.6l-2,9.2
	H62.4l2-9.2c18.8-0.8,38.4-4,47.2-16l16.4-79.6L83.2,1335c-7.6-18.8-19.6-26-41.2-27.2l1.6-8.8h105.6l-1.6,8.8
	c-21.6,1.2-26,5.6-33.2,10.4l42,109.2l86.4-108.4c-5.6-4.8-13.2-10-34-11.2l1.6-8.8H302.8z"/>
<path class="st0" d="M424.4,1507.8c-23.2,28-44.4,48.4-65.2,48.4c-8.8,0-12.4-12.4-12.4-26.4l10.8-46.4
	c-32.8,40-65.6,72.8-87.2,72.8c-6.8,0-19.2-11.6-19.2-42.8c0-32.4,11.6-63.6,35.6-88c30-30.8,68.4-47.2,109.2-47.2h12l-28,131.6
	c-0.8,4-1.6,11.6-1.6,14.4c0,5.2,0,9.2,4.4,9.2c4.8,0,19.2-13.6,34.4-31.6L424.4,1507.8z M372.8,1405c-4.8-1.2-10.8-1.6-15.2-1.6
	c-16,0-33.6,3.2-39.6,8c-19.6,15.6-35.6,44.8-35.6,90.8c0,24,6,30.8,10.4,30.8c7.2,0,38-30.4,66.8-66L372.8,1405z"/>
<path class="st0" d="M533.2,1269.8l-48,236c-0.8,3.6-2,13.2-2,16c0,6,1.6,11.2,6,11.2s18.4-13.6,33.6-32l7.2,6
	c-23.6,28.8-45.2,49.2-66,49.2c-8.8,0-11.6-12.4-11.6-26.4c0-7.2,2.4-20.4,4.8-31.6l36.4-178.8c1.6-7.2,2.4-12,2.4-16
	c0-8-3.6-10.8-14.8-10.8c-3.6,0-9.6,1.2-14.8,1.6l2-9.2l58.4-15.2H533.2z"/>
<path class="st0" d="M586.8,1473.8c-0.4,4.8-0.8,11.2-0.8,16c0,28.4,10.8,46.4,29.2,46.4c13.2,0,29.6-12.8,48.8-33.2l6.4,6.4
	c-26,31.2-54,47.6-74,47.6c-25.2,0-41.2-25.6-41.2-61.6c0-30.8,13.6-61.2,33.2-83.6c18-20.8,38.8-34.4,59.6-34.4
	c23.2,0,33.2,15.2,33.2,31.2C681.2,1431.4,650,1456.6,586.8,1473.8z M623.6,1393.4c-15.6,10.4-30.4,37.6-36,70.4
	c32.8-8.8,50.8-21.6,63.2-32.8c0.8-2,1.6-5.2,1.6-7.2C652.4,1407.4,649.2,1393.4,623.6,1393.4z"/>
<path class="st0" d="M965.6,1408.2c34,9.2,52.4,30.8,52.4,57.2c0,56.4-44.8,87.6-115.6,87.6H779.2l2-9.2c18.4-0.8,43.6-5.2,52-18.4
	l43.2-203.6c-2-8-17.6-13.2-36.4-14l2-8.8c52.4-0.4,66.8-2,99.2-2c56,0,79.6,22.4,79.6,48.8
	C1020.8,1372.2,1007.6,1391.4,965.6,1408.2z M910.4,1416.6c-7.2,0-14.4,0.4-19.2,0.8l-22,106.4c4.4,13.6,20.4,17.2,39.6,17.2
	c43.2,0,70-32.8,70-73.2C978.8,1435.4,944.8,1416.6,910.4,1416.6z M927.2,1310.2h-12.8l-20,94c10.8-0.8,21.6-0.8,31.6-0.8
	c10.4,0,19.6,1.2,27.2,1.6c19.6-13.6,29.6-32.4,29.6-53.6C982.8,1327.8,963.2,1310.2,927.2,1310.2z"/>
<path class="st0" d="M1224.8,1507.8c-23.2,28-44.4,48.4-65.2,48.4c-8.8,0-12.4-12.4-12.4-26.4l10.8-46.4
	c-32.8,40-65.6,72.8-87.2,72.8c-6.8,0-19.2-11.6-19.2-42.8c0-32.4,11.6-63.6,35.6-88c30-30.8,68.4-47.2,109.2-47.2h12l-28,131.6
	c-0.8,4-1.6,11.6-1.6,14.4c0,5.2,0,9.2,4.4,9.2c4.8,0,19.2-13.6,34.4-31.6L1224.8,1507.8z M1173.2,1405c-4.8-1.2-10.8-1.6-15.2-1.6
	c-16,0-33.6,3.2-39.6,8c-19.6,15.6-35.6,44.8-35.6,90.8c0,24,6,30.8,10.4,30.8c7.2,0,38-30.4,66.8-66L1173.2,1405z"/>
<path class="st0" d="M1375.6,1512.2c-23.2,29.6-48.8,45.2-73.6,45.2c-8.8,0-39.6-5.2-52-24.4l43.6-213.6c1.6-7.2,2.4-12,2.4-16
	c0-8-3.6-10.8-14.8-10.8c-3.6,0-9.6,1.2-14.8,1.6l2-9.2l58.4-15.2h6.4l-34.8,170.4c36.4-41.6,67.2-62.8,78-62.8
	c11.6,0,27.2,27.2,27.2,63.6C1403.6,1464.6,1394,1489,1375.6,1512.2z M1354.8,1402.2c-5.6,0-29.2,20-60,55.6l-13.2,65.6
	c16.4,14.8,38.8,16,50.8,16c19.6-13.6,39.2-54.4,39.2-101.6C1371.6,1413,1364.4,1402.2,1354.8,1402.2z"/>
<path class="st0" d="M1570.8,1428.2c-9.6,24.4-29.6,71.6-48.8,109.6c-32,62.8-72.4,118-117.2,118c-10.8,0-16.8-8-16.8-18
	c1.6-8.8,6.4-16,16-20.4c13.6,7.2,22.4,9.2,35.2,9.2c10-3.6,35.6-18.8,57.2-69.2c0-60.8-6.8-104-25.6-147.2
	c-2.4-5.6-6-11.2-14.8-11.2c-4.8,0-20.4,5.6-20.4,33.2v4.4h-8.8c-0.4-2.8-0.4-6-0.4-9.2c0-36,24.8-50,40.4-50s23.6,7.2,27.6,14.4
	c19.2,34,27.2,86.8,26.8,128.8c23.2-52,30-83.2,32-122.8c0.8-17.2,8-20,14.8-20c10.4,0,14.4,4.8,14.4,12.8
	C1582.4,1399.8,1576.8,1413,1570.8,1428.2z"/>
<path class="st0" d="M1691.6,1269.8l-48,236c-0.8,3.6-2,13.2-2,16c0,6,1.6,11.2,6,11.2c4.4,0,18.4-13.6,33.6-32l7.2,6
	c-23.6,28.8-45.2,49.2-66,49.2c-8.8,0-11.6-12.4-11.6-26.4c0-7.2,2.4-20.4,4.8-31.6l36.4-178.8c1.6-7.2,2.4-12,2.4-16
	c0-8-3.6-10.8-14.8-10.8c-3.6,0-9.6,1.2-14.8,1.6l2-9.2l58.4-15.2H1691.6z"/>
<path class="st0" d="M1829.2,1511c-27.2,33.2-55.6,46.4-70.4,46.4c-22,0-45.6-25.2-45.6-69.6c0-20.8,8-44,24.4-64.4
	c25.2-31.2,56.8-46,70.4-46c22.8,0,45.6,25.2,45.6,69.6C1853.6,1467.8,1845.6,1491,1829.2,1511z M1792,1394.2
	c-16.8,0-47.6,35.2-47.6,90c0,38.4,14.4,56.8,30.8,56.8c18,0,47.2-36,47.2-92C1822.4,1413.4,1808,1394.2,1792,1394.2z"/>
<path class="st0" d="M2070.8,1507.8c-23.2,28-44.4,48.4-65.2,48.4c-8.8,0-11.2-12.8-11.2-26.8c0-7.2,3.2-19.2,6-31.6
	c0,0,17.2-67.6,20-84c0-10.4-0.8-12.8-6.8-12.8c-7.6,0-43.6,37.2-75.2,75.6l-14.8,76.4H1894l26.4-129.2c1.2-6.8,5.2-22,5.2-23.6
	c0-1.2-0.4-4-1.2-4c-5.2,0-16.8,11.6-32.8,34l-7.6-5.2c22.4-32,39.2-47.6,57.6-47.6c8.8,0,12.8,11.2,12.8,23.6c0,4-0.8,9.2-2,13.6
	L1942,1459c35.2-42.8,72-81.6,93.6-81.6c6.8,0,16.4,15.2,16.4,27.2c0,7.2-1.6,16.4-5.6,30.8l-19.6,73.2c-1.2,4.4-2.4,13.2-2.4,16
	c0,6.4,0.4,9.6,5.2,9.6c4.4,0,18.8-14.4,34-32.4L2070.8,1507.8z"/>
<path class="st0" d="M2188,1507.8c-23.2,28-44.4,48.4-65.2,48.4c-8.8,0-12-12.4-12-26.4c0-7.2,2.4-21.2,5.6-33.6l18-72.4
	c2-8.8,4.8-22,4.8-23.6c0-1.2,0.8-4-1.2-4c-5.2,0-16.8,11.6-32.8,34l-7.6-5.2c22.4-32,40-47.6,58.4-47.6c8.8,0,12,11.2,12,23.6
	c0,4,0,9.2-1.2,13.6l-23.2,92.8c-0.8,3.2-2,10.4-2,13.2c0,6,2,12.4,6.4,12.4c4,0,17.6-13.2,32.8-31.2L2188,1507.8z M2169.2,1323.4
	c-12.4,0-20.4-10-20.4-19.2c0-9.6,8-20,20.4-20c12,0,20,10.4,20,20C2189.2,1313.4,2181.2,1323.4,2169.2,1323.4z"/>
<path class="st0" d="M2382.4,1507.8c-23.2,28-44.4,48.4-65.2,48.4c-8.8,0-12.4-12.4-12.4-26.4l10.8-46.4
	c-32.8,40-65.6,72.8-87.2,72.8c-6.8,0-19.2-11.6-19.2-42.8c0-32.4,11.6-63.6,35.6-88c30-30.8,68.4-47.2,109.2-47.2h12l-28,131.6
	c-0.8,4-1.6,11.6-1.6,14.4c0,5.2,0,9.2,4.4,9.2c4.8,0,19.2-13.6,34.4-31.6L2382.4,1507.8z M2330.8,1405c-4.8-1.2-10.8-1.6-15.2-1.6
	c-16,0-33.6,3.2-39.6,8c-19.6,15.6-35.6,44.8-35.6,90.8c0,24,6,30.8,10.4,30.8c7.2,0,38-30.4,66.8-66L2330.8,1405z"/>
<path class="st0" d="M2589.6,1507.8c-23.2,28-44.4,48.4-65.2,48.4c-8.8,0-11.2-12.8-11.2-26.8c0-7.2,3.2-19.2,6-31.6
	c0,0,17.2-67.6,20-84c0-10.4-0.8-12.8-6.8-12.8c-7.6,0-43.6,37.2-75.2,75.6l-14.8,76.4h-29.6l26.4-129.2c1.2-6.8,5.2-22,5.2-23.6
	c0-1.2-0.4-4-1.2-4c-5.2,0-16.8,11.6-32.8,34l-7.6-5.2c22.4-32,39.2-47.6,57.6-47.6c8.8,0,12.8,11.2,12.8,23.6c0,4-0.8,9.2-2,13.6
	l-10.4,44.4c35.2-42.8,72-81.6,93.6-81.6c6.8,0,16.4,15.2,16.4,27.2c0,7.2-1.6,16.4-5.6,30.8l-19.6,73.2c-1.2,4.4-2.4,13.2-2.4,16
	c0,6.4,0.4,9.6,5.2,9.6c4.4,0,18.8-14.4,34-32.4L2589.6,1507.8z"/>
<path class="st0" d="M2962.8,1378.6l-8.8-0.8c0.4-3.2,0.4-6,0.4-9.2c0-15.6-3.6-31.2-14.8-39.6c-6.8-5.2-26.8-20.8-62.8-20.8
	c-70.8,0-105.6,67.2-105.6,132.8c0,64.4,39.6,103.2,95.6,103.2c16.8,0,30.4-6,37.6-10.8c18-12,32.4-30.8,39.2-49.6l9.2,2.8
	l-24.4,61.2c-22.8,6.8-38,10.4-62.8,10.4c-78.4,0-135.2-37.6-135.2-117.2c0-83.6,65.6-147.2,149.2-147.2c40,0,65.2,9.6,94.4,19.2
	L2962.8,1378.6z"/>
<path class="st0" d="M3100.8,1511c-27.2,33.2-55.6,46.4-70.4,46.4c-22,0-45.6-25.2-45.6-69.6c0-20.8,8-44,24.4-64.4
	c25.2-31.2,56.8-46,70.4-46c22.8,0,45.6,25.2,45.6,69.6C3125.2,1467.8,3117.2,1491,3100.8,1511z M3063.6,1394.2
	c-16.8,0-47.6,35.2-47.6,90c0,38.4,14.4,56.8,30.8,56.8c18,0,47.2-36,47.2-92C3094,1413.4,3079.6,1394.2,3063.6,1394.2z"/>
<path class="st0" d="M3244,1269.8l-48,236c-0.8,3.6-2,13.2-2,16c0,6,1.6,11.2,6,11.2c4.4,0,18.4-13.6,33.6-32l7.2,6
	c-23.6,28.8-45.2,49.2-66,49.2c-8.8,0-11.6-12.4-11.6-26.4c0-7.2,2.4-20.4,4.8-31.6l36.4-178.8c1.6-7.2,2.4-12,2.4-16
	c0-8-3.6-10.8-14.8-10.8c-3.6,0-9.6,1.2-14.8,1.6l2-9.2l58.4-15.2H3244z"/>
<path class="st0" d="M3353.5,1269.8l-48,236c-0.8,3.6-2,13.2-2,16c0,6,1.6,11.2,6,11.2c4.4,0,18.4-13.6,33.6-32l7.2,6
	c-23.6,28.8-45.2,49.2-66,49.2c-8.8,0-11.6-12.4-11.6-26.4c0-7.2,2.4-20.4,4.8-31.6l36.4-178.8c1.6-7.2,2.4-12,2.4-16
	c0-8-3.6-10.8-14.8-10.8c-3.6,0-9.6,1.2-14.8,1.6l2-9.2l58.4-15.2H3353.5z"/>
<path class="st0" d="M3407.1,1473.8c-0.4,4.8-0.8,11.2-0.8,16c0,28.4,10.8,46.4,29.2,46.4c13.2,0,29.6-12.8,48.8-33.2l6.4,6.4
	c-26,31.2-54,47.6-74,47.6c-25.2,0-41.2-25.6-41.2-61.6c0-30.8,13.6-61.2,33.2-83.6c18-20.8,38.8-34.4,59.6-34.4
	c23.2,0,33.2,15.2,33.2,31.2C3501.5,1431.4,3470.3,1456.6,3407.1,1473.8z M3443.9,1393.4c-15.6,10.4-30.4,37.6-36,70.4
	c32.8-8.8,50.8-21.6,63.2-32.8c0.8-2,1.6-5.2,1.6-7.2C3472.7,1407.4,3469.5,1393.4,3443.9,1393.4z"/>
<path class="st0" d="M3633.1,1420.2c-10.8-11.6-20.8-22-41.2-23.2c-12.8,7.6-34.4,43.2-34.4,84.8c0,40.8,12.8,54.8,28.4,54.8
	c12,0,29.6-13.2,48.4-33.6l6.4,6.4c-26,31.2-54,47.6-73.2,47.6c-25.2,0-42-26-42-62c0-30.8,13.6-60,32.8-82.4
	c19.2-22.4,42-34.4,62.8-34.4c21.6,0,32.4,12,32.4,20.4C3653.5,1405.4,3640.7,1416.6,3633.1,1420.2z"/>
<path class="st0" d="M3779.1,1382.6l-4.8,16.8h-42l-20,106.4c-0.8,4-1.6,13.2-1.6,16c0,7.6,2.4,12.8,6.8,12.8s23.6-15.6,39.2-36
	l7.2,6c-25.2,32.4-48.8,51.6-69.6,51.6c-8.8,0-14.4-12.4-14.4-26.4c0-7.2,2-20,4.4-31.6l18.8-99.2l-25.2,0.8l2-8.4
	c27.2-12.4,42-24.4,59.2-52h8.8l-12.4,43.2H3779.1z"/>
<path class="st0" d="M3881.9,1507.8c-23.2,28-44.4,48.4-65.2,48.4c-8.8,0-12-12.4-12-26.4c0-7.2,2.4-21.2,5.6-33.6l18-72.4
	c2-8.8,4.8-22,4.8-23.6c0-1.2,0.8-4-1.2-4c-5.2,0-16.8,11.6-32.8,34l-7.6-5.2c22.4-32,40-47.6,58.4-47.6c8.8,0,12,11.2,12,23.6
	c0,4,0,9.2-1.2,13.6l-23.2,92.8c-0.8,3.2-2,10.4-2,13.2c0,6,2,12.4,6.4,12.4c4,0,17.6-13.2,32.8-31.2L3881.9,1507.8z M3863.1,1323.4
	c-12.4,0-20.4-10-20.4-19.2c0-9.6,8-20,20.4-20c12,0,20,10.4,20,20C3883.1,1313.4,3875.1,1323.4,3863.1,1323.4z"/>
<path class="st0" d="M4024.3,1511c-27.2,33.2-55.6,46.4-70.4,46.4c-22,0-45.6-25.2-45.6-69.6c0-20.8,8-44,24.4-64.4
	c25.2-31.2,56.8-46,70.4-46c22.8,0,45.6,25.2,45.6,69.6C4048.7,1467.8,4040.7,1491,4024.3,1511z M3987.1,1394.2
	c-16.8,0-47.6,35.2-47.6,90c0,38.4,14.4,56.8,30.8,56.8c18,0,47.2-36,47.2-92C4017.5,1413.4,4003.1,1394.2,3987.1,1394.2z"/>
<path class="st0" d="M4265.9,1507.8c-23.2,28-44.4,48.4-65.2,48.4c-8.8,0-11.2-12.8-11.2-26.8c0-7.2,3.2-19.2,6-31.6
	c0,0,17.2-67.6,20-84c0-10.4-0.8-12.8-6.8-12.8c-7.6,0-43.6,37.2-75.2,75.6l-14.8,76.4h-29.6l26.4-129.2c1.2-6.8,5.2-22,5.2-23.6
	c0-1.2-0.4-4-1.2-4c-5.2,0-16.8,11.6-32.8,34l-7.6-5.2c22.4-32,39.2-47.6,57.6-47.6c8.8,0,12.8,11.2,12.8,23.6c0,4-0.8,9.2-2,13.6
	l-10.4,44.4c35.2-42.8,72-81.6,93.6-81.6c6.8,0,16.4,15.2,16.4,27.2c0,7.2-1.6,16.4-5.6,30.8l-19.6,73.2c-1.2,4.4-2.4,13.2-2.4,16
	c0,6.4,0.4,9.6,5.2,9.6c4.4,0,18.8-14.4,34-32.4L4265.9,1507.8z"/>
</svg>
