<?xml version="1.0" encoding="utf-8"?>
<!-- Generator: Adobe Illustrator 22.1.0, SVG Export Plug-In . SVG Version: 6.00 Build 0)  -->
<svg version="1.1" id="Layer_1" xmlns="http://www.w3.org/2000/svg" xmlns:xlink="http://www.w3.org/1999/xlink" x="0px" y="0px"
	 viewBox="0 0 9682.1 398.5" style="enable-background:new 0 0 9682.1 398.5;" xml:space="preserve">
<style type="text/css">
	.st0{fill:#E6C792;}
</style>
<g>
	<path class="st0" d="M410.4,389.4H241.2v-13.8c28.2-1.2,51.6-7.8,57.6-20.4L256.2,231H138L96,348c6.6,14.4,30.6,26.4,58.2,27.6
		v13.8H0v-13.8c27.6-1.2,45.6-6,57.6-21.6c16.2-39.6,36.6-89.4,54.6-138c24.6-66.6,48.6-132,62.4-173.4c7.2-21,6.6-28.2,7.8-39.6
		h61.8c1.8,18.6,1.8,27,7.8,46.2c19.8,63.6,36.6,114,53.4,164.4c14.4,42.6,28.8,84,48,135.6c6.6,18,29.4,25.2,57,26.4V389.4z
		 M247.2,204.6L208.8,81L201,48h-2.4l-9,33L147,204.6H247.2z"/>
	<path class="st0" d="M862.8,21.6c-28.2,1.2-51,14.4-57,26.4v233.4c0,31.8,1.8,87.6,3.6,112.8H786L544.8,110.4l-30-42.6H513l1.8,39
		v139.8c0,32.4,3,78,3.6,103.2c6,12,39.6,24.6,67.2,25.8v13.8H423v-13.8c28.2-1.2,52.8-13.8,58.2-25.8V131.4c0-30,0.6-62.4-3-85.2
		c-6-12-28.2-23.4-55.8-24.6V8.4H528L562.2,51l210.6,247.8V150.6c0-33-2.4-84-3-102.6c-6-12-39.6-25.2-67.2-26.4V8.4h160.2V21.6z"/>
	<path class="st0" d="M1270.2,283.2l-21,93c-43.8,13.8-59.4,21-128.4,21C1000.2,397.2,912,309,912,195.6c0-115.2,93.6-195,210-195
		c57.6,0,91.2,10.8,135.6,21.6v99h-13.2c-2.4-27-12-57.6-35.4-72c-10.8-6.6-38.4-25.8-96-25.8c-87,0-138.6,72.6-138.6,157.8
		c0,112.8,66,193.2,167.4,193.2c33,0,56.4-10.8,66.6-19.2c24-19.2,41.4-47.4,47.4-75.6L1270.2,283.2z"/>
	<path class="st0" d="M1491.6,389.4H1317v-13.8c28.2-1.2,54.6-9,60-21V43.2c-5.4-12-31.8-20.4-60-21.6V8.4h174.6v13.2
		c-28.2,1.2-54.6,9.6-60,21.6v311.4c5.4,12,31.8,19.8,60,21V389.4z"/>
	<path class="st0" d="M1842.6,389.4h-199.2l-124.2,1.8v-13.8c27.6-1.2,69-9.6,77.4-29.4V43.2c-5.4-12-29.4-19.8-57-21V9H1773
		c17.4,0,28.2-1.8,36-4.2h11.4v96.6h-12.6c-2.4-52.8-25.2-65.4-70.2-65.4h-86.4v145.2h81c40.2,0,57.6-0.6,63.6-44.4h11.4v121.8
		h-12.6c-4.8-48.6-18.6-48-62.4-48h-81v132c1.8,7.8,5.4,16.2,16.2,20.4l93.6-1.8c41.4-0.6,68.4-17.4,69.6-68.4h12V389.4z"/>
	<path class="st0" d="M2343.6,21.6c-28.2,1.2-51,14.4-57,26.4v233.4c0,31.8,1.8,87.6,3.6,112.8h-23.4l-241.2-283.8l-30-42.6h-1.8
		l1.8,39v139.8c0,32.4,3,78,3.6,103.2c6,12,39.6,24.6,67.2,25.8v13.8h-162.6v-13.8c28.2-1.2,52.8-13.8,58.2-25.8V131.4
		c0-30,0.6-62.4-3-85.2c-6-12-28.2-23.4-55.8-24.6V8.4h105.6L2043,51l210.6,247.8V150.6c0-33-2.4-84-3-102.6
		c-6-12-39.6-25.2-67.2-26.4V8.4h160.2V21.6z"/>
	<path class="st0" d="M2745,106.2h-12c-1.2-51-28.2-69-72.6-69.6l-67.2-0.6v306.6c13.2,28.2,45,31.8,72.6,33v13.8h-201v-13.8
		c27.6-1.2,65.4-6.6,73.8-24.6V36l-67.2,0.6c-44.4,0.6-70.8,18.6-72,69.6h-12.6V4.8h11.4c7.8,2.4,16.2,4.2,36,4.2h263.4
		c15,0,28.2-1.8,36-4.2h11.4V106.2z"/>
	<path class="st0" d="M3460.8,389.4h-172.2v-13.8c27.6-1.2,56.4-9,61.2-21l-11.4-222l2.4-62.4l-17.4,48L3192,390h-19.2L3060,106.8
		L3047.4,60l0.6,42.6l-17.4,247.2c4.2,12,33,24.6,60.6,25.8v13.8h-153v-13.8c27.6-1.2,51.6-13.8,58.8-25.8l16.8-218.4
		c1.8-22.2,4.8-64.8,4.8-67.8c0-7.8,0-15-0.6-21c-6-9.6-24.6-19.8-52.2-21V8.4h110.4l20.4,57l100.2,250.2l117.6-244.8L3342,8.4h96
		v13.2c-27.6,1.2-46.2,10.2-52.2,19.8c0,4.8,0,10.2,0,16.2s3,54,4.2,73.8l12.6,223.2c7.2,12,30.6,19.8,58.2,21V389.4z"/>
	<path class="st0" d="M3804.6,389.4h-199.2l-124.2,1.8v-13.8c27.6-1.2,69-9.6,77.4-29.4V43.2c-5.4-12-29.4-19.8-57-21V9H3735
		c17.4,0,28.2-1.8,36-4.2h11.4v96.6h-12.6c-2.4-52.8-25.2-65.4-70.2-65.4h-86.4v145.2h81c40.2,0,57.6-0.6,63.6-44.4h11.4v121.8
		h-12.6c-4.8-48.6-18.6-48-62.4-48h-81v132c1.8,7.8,5.4,16.2,16.2,20.4l93.6-1.8c41.4-0.6,68.4-17.4,69.6-68.4h12V389.4z"/>
	<path class="st0" d="M3997.2,398.4c-46.2,0-81.6-13.2-104.4-23.4l-10.8-95.4h13.2c5.4,26.4,22.2,57.6,45.6,73.2
		c15.6,10.2,40.2,22.8,67.2,22.8c53.4,0,79.8-31.2,79.8-67.8c0-42-25.8-62.4-79.2-82.8c-79.2-30.6-112.2-57-112.2-114
		c0-66,61.8-111,146.4-111c39.6,0,67.8,9,88.2,18v93.6h-13.2c-2.4-27-11.4-57-34.8-70.2c-9.6-5.4-28.2-17.4-55.8-17.4
		c-56.4,0-79.2,30-79.2,62.4c0,37.8,12.6,56.4,84.6,87c73.2,31.2,106.8,55.2,106.8,111.6C4139.4,355.8,4077.6,398.4,3997.2,398.4z"
		/>
	<path class="st0" d="M4398.6,398.4c-118.8,0-187.8-82.2-187.8-197.4c0-117,94.8-201,213-201c120.6,0,188.4,83.4,188.4,193.8
		C4612.2,314.4,4516.8,398.4,4398.6,398.4z M4390.8,24c-60.6,0-119.4,65.4-119.4,158.4c0,109.2,56.4,191.4,156.6,191.4
		c63.6,0,123.6-63.6,123.6-159C4551.6,100.8,4489.2,24,4390.8,24z"/>
	<path class="st0" d="M4821.6,236.4c-14.4,0-24-3-42.6-7.8v117c8.4,19.8,44.4,28.8,72,30v13.8h-192v-13.8c27.6-1.2,57-7.2,65.4-27
		V44.4c-6-13.8-34.2-21.6-61.8-22.8V8.4c66.6,0,124.2-1.8,151.8-1.8c102,0,150,42,150,109.2C4964.4,184.2,4915.2,236.4,4821.6,236.4
		z M4816.8,28.2c-9.6,0-24,0-37.8,1.2v184.2c13.2,2.4,22.2,2.4,33.6,2.4c60.6,0,93-41.4,93-102.6
		C4905.6,66.6,4874.4,28.2,4816.8,28.2z"/>
	<path class="st0" d="M5207.9,398.4c-118.8,0-187.8-82.2-187.8-197.4c0-117,94.8-201,213-201c120.6,0,188.4,83.4,188.4,193.8
		C5421.5,314.4,5326.1,398.4,5207.9,398.4z M5200.1,24c-60.6,0-119.4,65.4-119.4,158.4c0,109.2,56.4,191.4,156.6,191.4
		c63.6,0,123.6-63.6,123.6-159C5360.9,100.8,5298.5,24,5200.1,24z"/>
	<path class="st0" d="M5826.5,106.2h-12c-1.2-51-28.2-69-72.6-69.6l-67.2-0.6v306.6c13.2,28.2,45,31.8,72.6,33v13.8h-201v-13.8
		c27.6-1.2,65.4-6.6,73.8-24.6V36l-67.2,0.6c-44.4,0.6-70.8,18.6-72,69.6h-12.6V4.8h11.4c7.8,2.4,16.2,4.2,36,4.2h263.4
		c15,0,28.2-1.8,36-4.2h11.4V106.2z"/>
	<path class="st0" d="M6220.7,389.4h-169.2v-13.8c28.2-1.2,51.6-7.8,57.6-20.4L6066.5,231h-118.2l-42,117
		c6.6,14.4,30.6,26.4,58.2,27.6v13.8h-154.2v-13.8c27.6-1.2,45.6-6,57.6-21.6c16.2-39.6,36.6-89.4,54.6-138
		c24.6-66.6,48.6-132,62.4-173.4c7.2-21,6.6-28.2,7.8-39.6h61.8c1.8,18.6,1.8,27,7.8,46.2c19.8,63.6,36.6,114,53.4,164.4
		c14.4,42.6,28.8,84,48,135.6c6.6,18,29.4,25.2,57,26.4V389.4z M6057.5,204.6L6019.1,81l-7.8-33h-2.4l-9,33l-42.6,123.6H6057.5z"/>
	<path class="st0" d="M6747.5,389.4h-172.2v-13.8c27.6-1.2,56.4-9,61.2-21l-11.4-222l2.4-62.4l-17.4,48L6478.7,390h-19.2
		l-112.8-283.2L6334.1,60l0.6,42.6l-17.4,247.2c4.2,12,33,24.6,60.6,25.8v13.8h-153v-13.8c27.6-1.2,51.6-13.8,58.8-25.8l16.8-218.4
		c1.8-22.2,4.8-64.8,4.8-67.8c0-7.8,0-15-0.6-21c-6-9.6-24.6-19.8-52.2-21V8.4h110.4l20.4,57l100.2,250.2l117.6-244.8l27.6-62.4h96
		v13.2c-27.6,1.2-46.2,10.2-52.2,19.8c0,4.8,0,10.2,0,16.2s3,54,4.2,73.8l12.6,223.2c7.2,12,30.6,19.8,58.2,21V389.4z"/>
	<path class="st0" d="M6962.3,389.4h-174.6v-13.8c28.2-1.2,54.6-9,60-21V43.2c-5.4-12-31.8-20.4-60-21.6V8.4h174.6v13.2
		c-28.2,1.2-54.6,9.6-60,21.6v311.4c5.4,12,31.8,19.8,60,21V389.4z"/>
	<path class="st0" d="M7383.5,389.4h-169.2v-13.8c28.2-1.2,51.6-7.8,57.6-20.4L7229.3,231h-118.2l-42,117
		c6.6,14.4,30.6,26.4,58.2,27.6v13.8h-154.2v-13.8c27.6-1.2,45.6-6,57.6-21.6c16.2-39.6,36.6-89.4,54.6-138
		c24.6-66.6,48.6-132,62.4-173.4c7.2-21,6.6-28.2,7.8-39.6h61.8c1.8,18.6,1.8,27,7.8,46.2c19.8,63.6,36.6,114,53.4,164.4
		c14.4,42.6,28.8,84,48,135.6c6.6,18,29.4,25.2,57,26.4V389.4z M7220.3,204.6L7181.9,81l-7.8-33h-2.4l-9,33l-42.6,123.6H7220.3z"/>
	<path class="st0" d="M7680.5,398.4c-46.2,0-81.6-13.2-104.4-23.4l-10.8-95.4h13.2c5.4,26.4,22.2,57.6,45.6,73.2
		c15.6,10.2,40.2,22.8,67.2,22.8c53.4,0,79.8-31.2,79.8-67.8c0-42-25.8-62.4-79.2-82.8c-79.2-30.6-112.2-57-112.2-114
		c0-66,61.8-111,146.4-111c39.6,0,67.8,9,88.2,18v93.6h-13.2c-2.4-27-11.4-57-34.8-70.2c-9.6-5.4-28.2-17.4-55.8-17.4
		c-56.4,0-79.2,30-79.2,62.4c0,37.8,12.6,56.4,84.6,87c73.2,31.2,106.8,55.2,106.8,111.6C7822.7,355.8,7760.9,398.4,7680.5,398.4z"
		/>
	<path class="st0" d="M8041.7,236.4c-14.4,0-24-3-42.6-7.8v117c8.4,19.8,44.4,28.8,72,30v13.8h-192v-13.8c27.6-1.2,57-7.2,65.4-27
		V44.4c-6-13.8-34.2-21.6-61.8-22.8V8.4c66.6,0,124.2-1.8,151.8-1.8c102,0,150,42,150,109.2C8184.5,184.2,8135.3,236.4,8041.7,236.4
		z M8036.9,28.2c-9.6,0-24,0-37.8,1.2v184.2c13.2,2.4,22.2,2.4,33.6,2.4c60.6,0,93-41.4,93-102.6
		C8125.7,66.6,8094.5,28.2,8036.9,28.2z"/>
	<path class="st0" d="M8536.7,389.4h-199.2l-124.2,1.8v-13.8c27.6-1.2,69-9.6,77.4-29.4V43.2c-5.4-12-29.4-19.8-57-21V9h233.4
		c17.4,0,28.2-1.8,36-4.2h11.4v96.6h-12.6c-2.4-52.8-25.2-65.4-70.2-65.4h-86.4v145.2h81c40.2,0,57.6-0.6,63.6-44.4h11.4v121.8
		h-12.6c-4.8-48.6-18.6-48-62.4-48h-81v132c1.8,7.8,5.4,16.2,16.2,20.4l93.6-1.8c41.4-0.6,68.4-17.4,69.6-68.4h12V389.4z"/>
	<path class="st0" d="M8972.3,389.4h-169.2v-13.8c28.2-1.2,51.6-7.8,57.6-20.4L8818.1,231h-118.2l-42,117
		c6.6,14.4,30.6,26.4,58.2,27.6v13.8h-154.2v-13.8c27.6-1.2,45.6-6,57.6-21.6c16.2-39.6,36.6-89.4,54.6-138
		c24.6-66.6,48.6-132,62.4-173.4c7.2-21,6.6-28.2,7.8-39.6h61.8c1.8,18.6,1.8,27,7.8,46.2c19.8,63.6,36.6,114,53.4,164.4
		c14.4,42.6,28.8,84,48,135.6c6.6,18,29.4,25.2,57,26.4V389.4z M8809.1,204.6L8770.7,81l-7.8-33h-2.4l-9,33l-42.6,123.6H8809.1z"/>
	<path class="st0" d="M9151.7,389.4h-162.6v-13.8c27.6-1.2,48.6-9,54-21V43.2c-5.4-12-26.4-20.4-54-21.6V8.4h162.6v13.2
		c-27.6,1.2-48.6,9.6-54,21.6v311.4c5.4,12,26.4,19.8,54,21V389.4z M9386.9,389.4h-178.8v-13.8c30-1.2,36-7.8,43.2-15l-145.2-160.8
		l142.2-158.4c-6.6-7.8-15.6-16.2-43.2-19.8V8.4h158.4v13.2c-42,2.4-72.6,18-96,43.8l-106.2,115.8l138.6,154.2
		c25.2,27.6,47.4,39,87,40.2V389.4z"/>
	<path class="st0" d="M9539.9,398.4c-46.2,0-81.6-13.2-104.4-23.4l-10.8-95.4h13.2c5.4,26.4,22.2,57.6,45.6,73.2
		c15.6,10.2,40.2,22.8,67.2,22.8c53.4,0,79.8-31.2,79.8-67.8c0-42-25.8-62.4-79.2-82.8c-79.2-30.6-112.2-57-112.2-114
		c0-66,61.8-111,146.4-111c39.6,0,67.8,9,88.2,18v93.6h-13.2c-2.4-27-11.4-57-34.8-70.2c-9.6-5.4-28.2-17.4-55.8-17.4
		c-56.4,0-79.2,30-79.2,62.4c0,37.8,12.6,56.4,84.6,87c73.2,31.2,106.8,55.2,106.8,111.6C9682.1,355.8,9620.3,398.4,9539.9,398.4z"
		/>
</g>
</svg>
