<?xml version="1.0" encoding="utf-8"?>
<!-- Generator: Adobe Illustrator 22.1.0, SVG Export Plug-In . SVG Version: 6.00 Build 0)  -->
<svg version="1.1" id="Layer_1" xmlns="http://www.w3.org/2000/svg" xmlns:xlink="http://www.w3.org/1999/xlink" x="0px" y="0px"
	 viewBox="0 0 65 72" style="enable-background:new 0 0 65 72;" xml:space="preserve">
<style type="text/css">
	.st0{fill:#FFFFFF;}
</style>
<g id="yale-logo">
	<path class="st0" d="M26.2,25.2v-1h-9.6v1c2.1,0.2,3,0.6,3.7,1.1L14.2,37L7.9,26.2c0.6-0.4,1.2-0.8,3.3-1v-1H0v1
		c2.2,0.2,3.3,0.9,4.6,2.9l6.7,11.4v7.7c-0.6,1.2-2.8,1.4-4.7,1.6v1h13v-1.1c-1.9-0.1-3.8-0.3-4.6-2.1V39l6.6-11.1
		C22.7,26.1,24.1,25.3,26.2,25.2z M38.7,47.8v-1.1c-0.7,0.7-1.3,1.1-2,1.1c-0.8,0-1.7-0.3-1.7-2l0.1-8.5c0.1-3-1.2-4.9-4.9-4.9
		c-2,0-5.9,1.4-7.1,5v0.2l3.6-0.6c0.1-2,1.1-3.3,2.2-3.3c1.8,0,2.7,1.8,2.7,3.6v3l-8,2.9c-0.6,0.9-0.9,2.1-0.9,3.2
		c0,2.2,1.9,3.6,4,3.6c1.7,0,3.5-1.1,4.8-2.6c0.1,1.1,1.2,2.6,3.3,2.6C36.2,50,37.8,48.8,38.7,47.8z M31.4,41.5v5.5
		c-1.1,0.8-1.8,1.2-3,1.2c-1.3,0-2-1.2-2-2.5c0-0.9,0.2-1.4,0.3-2.1C27.9,43,30.4,41.8,31.4,41.5z M47.9,49.7v-0.9
		c-1.7-0.1-2.3-0.4-2.8-1.2V24.1l1.1-1.4L46,22l-7.4,1.9v0.8c2.8,0.2,3,0.8,3,2.1v20.8c-0.3,0.7-0.9,1.1-2.7,1.2v0.9H47.9z M65,46.4
		l-0.6-0.9c-1.6,1.4-2.7,2.1-4.7,2.1c-3.5,0-6-2.7-6-6.8c0-0.9,0-1.6,0.1-2l10.8,0.1v-0.7c0-3.6-2.1-5.8-6.1-5.8
		c-5,0-8.5,3.9-8.5,9.6c0,4.7,3.2,8,7.5,8C60.9,50,62.8,48.7,65,46.4z M61,37.7l-7,0.1c0.4-2.6,1.9-4.1,3.9-4.1
		C59.8,33.7,61.1,35.7,61,37.7z"/>
</g>
</svg>
